<svg width="25" height="24" viewBox="0 0 25 24" fill="none" xmlns="http://www.w3.org/2000/svg">
<path d="M17.1777 6V6.75M17.1777 9.75V10.5M17.1777 13.5V14.25M17.1777 17.25V18M8.17773 12.75H13.4277M8.17773 15H11.1777M4.05273 5.25C3.43173 5.25 2.92773 5.754 2.92773 6.375V9.401C3.38448 9.66398 3.76386 10.0427 4.02765 10.4989C4.29145 10.9552 4.43034 11.473 4.43034 12C4.43034 12.527 4.29145 13.0448 4.02765 13.5011C3.76386 13.9573 3.38448 14.336 2.92773 14.599V17.625C2.92773 18.246 3.43173 18.75 4.05273 18.75H21.3027C21.9237 18.75 22.4277 18.246 22.4277 17.625V14.599C21.971 14.336 21.5916 13.9573 21.3278 13.5011C21.064 13.0448 20.9251 12.527 20.9251 12C20.9251 11.473 21.064 10.9552 21.3278 10.4989C21.5916 10.0427 21.971 9.66398 22.4277 9.401V6.375C22.4277 5.754 21.9237 5.25 21.3027 5.25H4.05273Z" stroke="black" stroke-width="2" stroke-linecap="round" stroke-linejoin="round"/>
</svg>
