<svg width="24" height="24" viewBox="0 0 24 24" fill="none" xmlns="http://www.w3.org/2000/svg">
<path d="M21 2C19.9 2 19 2.9 19 4C19 4.7 19.4 5.4 20 5.7V17H17V15C17.6 15 18 14.6 18 14V5C18 4.4 17.6 4 17 4H13.2C12.4 2.8 11 2 9.5 2C8 2 6.6 2.8 5.8 4H2C1.4 4 1 4.4 1 5V14C1 14.6 1.4 15 2 15V22H17V19H20C21.1 19 22 18.1 22 17V5.7C22.6 5.4 23 4.7 23 4C23 2.9 22.1 2 21 2ZM3 6H16V13H3V6ZM15 20H4V15H15V20ZM13 19H6V17H13V19Z" fill="black"/>
<circle cx="3.76953" cy="10.8101" r="0.703125" fill="black"/>
<circle cx="5.5332" cy="10.9351" r="0.703125" fill="black"/>
<circle cx="7.10979" cy="11.7385" r="0.703125" transform="rotate(35.1367 7.10979 11.7385)" fill="black"/>
<circle cx="5.80078" cy="12.4265" r="0.703125" fill="black"/>
<circle cx="6.68359" cy="9.89062" r="0.703125" fill="black"/>
<circle cx="3.76953" cy="7.45142" r="0.703125" fill="black"/>
<circle cx="10.8672" cy="12.4265" r="0.703125" fill="black"/>
<circle cx="8.3457" cy="12.5117" r="0.703125" fill="black"/>
<circle cx="9.04883" cy="9.1875" r="0.703125" fill="black"/>
<circle cx="10.2148" cy="10.1865" r="0.703125" fill="black"/>
<circle cx="8.08984" cy="10.3171" r="0.703125" fill="black"/>
<circle cx="12.2734" cy="9.02246" r="0.703125" fill="black"/>
<circle cx="13.7832" cy="9.52881" r="0.703125" fill="black"/>
<circle cx="13.4062" cy="7.45142" r="0.703125" fill="black"/>
<circle cx="14.1094" cy="11.1055" r="0.703125" fill="black"/>
<circle cx="15.2832" cy="9.72559" r="0.703125" fill="black"/>
<circle cx="15.1895" cy="12.3413" r="0.703125" fill="black"/>
<circle cx="9.51172" cy="11.6382" r="0.703125" fill="black"/>
<circle cx="13.0273" cy="12.3413" r="0.703125" fill="black"/>
<circle cx="11.6211" cy="11.1055" r="0.703125" fill="black"/>
<circle cx="6.93945" cy="7.94629" r="0.703125" fill="black"/>
<circle cx="10.1016" cy="7.94629" r="0.703125" fill="black"/>
<circle cx="3.63867" cy="12.4265" r="0.703125" fill="black"/>
<circle cx="7.8125" cy="16.1802" r="0.703125" fill="black"/>
<path d="M8.04004 16.4771H7.55664V16.3906L7.7417 16.2031C7.77751 16.1667 7.80697 16.1353 7.83008 16.1089C7.85319 16.0822 7.87028 16.057 7.88135 16.0332C7.89274 16.0094 7.89844 15.9836 7.89844 15.9556C7.89844 15.9211 7.88851 15.895 7.86865 15.8774C7.8488 15.8595 7.82259 15.8506 7.79004 15.8506C7.75911 15.8506 7.73047 15.8568 7.7041 15.8691C7.67806 15.8812 7.65104 15.8984 7.62305 15.9209L7.56006 15.8452C7.57992 15.8283 7.60107 15.8128 7.62354 15.7988C7.64632 15.7848 7.67171 15.7738 7.69971 15.7656C7.7277 15.7572 7.7596 15.7529 7.79541 15.7529C7.84066 15.7529 7.87972 15.7611 7.9126 15.7773C7.94548 15.7933 7.9707 15.8156 7.98828 15.8442C8.00618 15.8729 8.01514 15.9062 8.01514 15.9443C8.01514 15.9827 8.00749 16.0182 7.99219 16.0508C7.97689 16.0833 7.95508 16.1156 7.92676 16.1475C7.89844 16.179 7.86475 16.2134 7.82568 16.2505L7.70215 16.3711V16.3765H8.04004V16.4771Z" fill="white"/>
<circle cx="9.31641" cy="16.1802" r="0.703125" fill="black"/>
<path d="M9.43115 16.4771H9.31592V16.0176C9.31592 16.0023 9.31608 15.987 9.31641 15.9717C9.31673 15.9564 9.31706 15.9414 9.31738 15.9268C9.31803 15.9121 9.31885 15.8981 9.31982 15.8848C9.31299 15.8923 9.30452 15.9004 9.29443 15.9092C9.28467 15.918 9.27425 15.9271 9.26318 15.9365L9.18115 16.002L9.12354 15.9292L9.33545 15.7632H9.43115V16.4771Z" fill="white"/>
<circle cx="10.8203" cy="16.1802" r="0.703125" fill="black"/>
<path d="M11.0322 15.9263C11.0322 15.9585 11.0257 15.9865 11.0127 16.0103C10.9997 16.034 10.9818 16.0535 10.959 16.0688C10.9365 16.0838 10.9105 16.0946 10.8809 16.1011V16.1045C10.9378 16.1117 10.9808 16.1296 11.0098 16.1582C11.0391 16.1868 11.0537 16.2248 11.0537 16.272C11.0537 16.3133 11.0438 16.3503 11.0239 16.3828C11.0041 16.415 10.9736 16.4404 10.9326 16.459C10.8916 16.4775 10.8389 16.4868 10.7744 16.4868C10.7357 16.4868 10.6997 16.4837 10.6665 16.4775C10.6336 16.4714 10.6024 16.4614 10.5728 16.4478V16.3457C10.603 16.3607 10.6353 16.3722 10.6694 16.3804C10.7036 16.3885 10.736 16.3926 10.7666 16.3926C10.8262 16.3926 10.8687 16.3815 10.894 16.3594C10.9194 16.3369 10.9321 16.306 10.9321 16.2666C10.9321 16.2412 10.9255 16.2204 10.9121 16.2041C10.8991 16.1878 10.8787 16.1756 10.8511 16.1675C10.8237 16.1593 10.7884 16.1553 10.7451 16.1553H10.6821V16.063H10.7456C10.7869 16.063 10.8201 16.0581 10.8452 16.0483C10.8703 16.0382 10.8883 16.0244 10.8994 16.0068C10.9108 15.9893 10.9165 15.9688 10.9165 15.9453C10.9165 15.9147 10.9066 15.891 10.8867 15.874C10.8669 15.8568 10.8374 15.8481 10.7983 15.8481C10.7743 15.8481 10.7523 15.8509 10.7324 15.8564C10.7129 15.862 10.6948 15.869 10.6782 15.8774C10.6616 15.8859 10.6458 15.895 10.6309 15.9048L10.5757 15.8252C10.6027 15.805 10.6349 15.7879 10.6724 15.7739C10.7098 15.7599 10.7534 15.7529 10.8032 15.7529C10.8765 15.7529 10.9329 15.7687 10.9727 15.8003C11.0124 15.8315 11.0322 15.8735 11.0322 15.9263Z" fill="white"/>
<circle cx="12.3242" cy="16.1802" r="0.703125" fill="black"/>
<path d="M12.3228 16.0308C12.3687 16.0308 12.409 16.0391 12.4438 16.0557C12.479 16.0719 12.5063 16.096 12.5259 16.1279C12.5454 16.1595 12.5552 16.1982 12.5552 16.2441C12.5552 16.2943 12.5446 16.3376 12.5234 16.374C12.5023 16.4102 12.4712 16.438 12.4302 16.4575C12.3892 16.4771 12.3392 16.4868 12.2803 16.4868C12.2428 16.4868 12.2078 16.4836 12.1753 16.4771C12.1431 16.4705 12.1152 16.4608 12.0918 16.4478V16.3442C12.1162 16.3579 12.1455 16.3691 12.1797 16.3779C12.2139 16.3864 12.2466 16.3906 12.2778 16.3906C12.311 16.3906 12.3395 16.3857 12.3633 16.376C12.387 16.3662 12.4053 16.3512 12.418 16.3311C12.431 16.3109 12.4375 16.2853 12.4375 16.2544C12.4375 16.2134 12.4243 16.1818 12.3979 16.1597C12.3719 16.1372 12.3311 16.126 12.2754 16.126C12.2559 16.126 12.235 16.1278 12.2129 16.1313C12.1911 16.1346 12.1729 16.1382 12.1582 16.1421L12.1079 16.1123L12.1348 15.7632H12.5059V15.8643H12.2358L12.2202 16.042C12.2319 16.0394 12.2459 16.0369 12.2622 16.0347C12.2785 16.0321 12.2987 16.0308 12.3228 16.0308Z" fill="white"/>
<circle cx="4.67188" cy="9.19336" r="0.703125" fill="black"/>
</svg>
