<svg width="22" height="26" viewBox="0 0 22 26" fill="none" xmlns="http://www.w3.org/2000/svg">
<path fill-rule="evenodd" clip-rule="evenodd" d="M3.87012 12.5884C2.21326 12.5884 0.870117 13.9315 0.870117 15.5884V22.207C0.870117 23.8639 2.21326 25.207 3.87012 25.207H18.8682C20.525 25.207 21.8682 23.8639 21.8682 22.207V15.5884C21.8682 13.9315 20.525 12.5884 18.8682 12.5884H3.87012ZM7.06836 20.708C7.06836 21.2041 7.01172 21.6123 6.89844 21.9326C6.78516 22.2529 6.625 22.5049 6.41797 22.6885C6.21094 22.8721 5.96094 23.001 5.66797 23.0752C5.375 23.1455 5.04883 23.1807 4.68945 23.1807C4.49805 23.1807 4.26953 23.165 4.00391 23.1338C3.74219 23.1025 3.50586 23.0596 3.29492 23.0049V22.126C3.48242 22.1729 3.69922 22.2158 3.94531 22.2549C4.19531 22.29 4.48242 22.3076 4.80664 22.3076C5.22461 22.3076 5.52734 22.1885 5.71484 21.9502C5.90234 21.708 5.99609 21.335 5.99609 20.8311C5.99609 20.2842 5.92578 19.8955 5.78516 19.665C5.64453 19.4307 5.39062 19.2744 5.02344 19.1963C4.6875 19.126 4.4043 19.0361 4.17383 18.9268C3.94336 18.8135 3.75586 18.6689 3.61133 18.4932C3.33008 18.1494 3.18945 17.6279 3.18945 16.9287C3.18945 16.499 3.24609 16.1377 3.35938 15.8447C3.47656 15.5518 3.64258 15.3135 3.85742 15.1299C4.06836 14.9463 4.31641 14.8154 4.60156 14.7373C4.89062 14.6553 5.20703 14.6143 5.55078 14.6143C5.75391 14.6143 5.97266 14.6318 6.20703 14.667C6.44141 14.7021 6.64844 14.7451 6.82812 14.7959V15.6689C6.61719 15.6221 6.38281 15.5811 6.125 15.5459C5.87109 15.5107 5.64062 15.4932 5.43359 15.4932C5.10156 15.4932 4.82227 15.6006 4.5957 15.8154C4.36914 16.0303 4.25586 16.3584 4.25586 16.7998C4.25586 17.1084 4.27734 17.3564 4.32031 17.5439C4.36719 17.7275 4.45703 17.8701 4.58984 17.9717C4.72266 18.0693 4.91992 18.1455 5.18164 18.2002C5.4707 18.2588 5.73047 18.3408 5.96094 18.4463C6.19141 18.5479 6.38867 18.6924 6.55273 18.8799C6.7168 19.0674 6.84375 19.3096 6.93359 19.6064C7.02344 19.9033 7.06836 20.2705 7.06836 20.708ZM12.1133 14.6963H13.1562V20.8779C13.1562 21.6865 12.9531 22.2725 12.5469 22.6357C12.1445 22.999 11.5996 23.1807 10.9121 23.1807C10.2246 23.1807 9.67578 22.999 9.26562 22.6357C8.85938 22.2725 8.65625 21.6865 8.65625 20.8779V14.6963H9.69922V21.1064C9.69922 21.5322 9.81055 21.8389 10.0332 22.0264C10.2598 22.2139 10.5527 22.3076 10.9121 22.3076C11.2715 22.3076 11.5605 22.2139 11.7793 22.0264C12.002 21.8389 12.1133 21.5322 12.1133 21.1064V14.6963ZM19.3789 21.8213C19.4922 21.4893 19.5488 21.0713 19.5488 20.5674C19.5488 20.2314 19.5098 19.9502 19.4316 19.7236C19.3574 19.4932 19.2617 19.3037 19.1445 19.1553C19.0273 19.0068 18.9004 18.8916 18.7637 18.8096C18.6309 18.7236 18.5039 18.6611 18.3828 18.6221C18.6211 18.5166 18.8398 18.3154 19.0391 18.0186C19.2422 17.7178 19.3438 17.3154 19.3438 16.8115C19.3438 16.4092 19.291 16.0693 19.1855 15.792C19.084 15.5107 18.9336 15.2822 18.7344 15.1064C18.5312 14.9307 18.2871 14.8057 18.002 14.7314C17.7207 14.6533 17.4004 14.6143 17.041 14.6143C16.8457 14.6143 16.6367 14.6162 16.4141 14.6201C16.1914 14.624 15.9883 14.6338 15.8047 14.6494L15.4766 14.6729C15.3672 14.6807 15.2559 14.6885 15.1426 14.6963V23.0986C15.2441 23.1064 15.3496 23.1143 15.459 23.1221C15.5684 23.1299 15.6797 23.1377 15.793 23.1455C15.9844 23.1611 16.1992 23.1709 16.4375 23.1748C16.6797 23.1787 16.9277 23.1807 17.1816 23.1807C17.541 23.1807 17.8672 23.1396 18.1602 23.0576C18.4531 22.9717 18.7012 22.8271 18.9043 22.624C19.1074 22.4209 19.2656 22.1533 19.3789 21.8213ZM18.0781 15.8154C18.2266 16.0381 18.3008 16.3975 18.3008 16.8936C18.3008 17.2139 18.2637 17.4639 18.1895 17.6436C18.1191 17.8193 18.0293 17.9521 17.9199 18.042C17.8105 18.1279 17.6895 18.1846 17.5566 18.2119C17.4277 18.2393 17.3027 18.2529 17.1816 18.2529H16.1855V15.5518C16.2793 15.5439 16.375 15.5322 16.4727 15.5166C16.6562 15.4932 16.8926 15.4814 17.1816 15.4814C17.6309 15.4814 17.9297 15.5928 18.0781 15.8154ZM18.2188 19.4893C18.3906 19.7354 18.4766 20.1221 18.4766 20.6494C18.4766 21.001 18.4453 21.2861 18.3828 21.5049C18.3203 21.7197 18.2344 21.8857 18.125 22.0029C18.0156 22.124 17.8887 22.2061 17.7441 22.249C17.6035 22.2881 17.4531 22.3076 17.293 22.3076C17.1641 22.3076 17.0352 22.3037 16.9062 22.2959C16.7773 22.2881 16.6582 22.2803 16.5488 22.2725L16.3613 22.2607C16.2988 22.2568 16.2402 22.2529 16.1855 22.249V19.1143H17.3047C17.7422 19.1143 18.0469 19.2393 18.2188 19.4893Z" fill="white"/>
<rect x="3.63867" y="1.12158" width="2.85614" height="1.44204" rx="0.721022" transform="rotate(44.5783 3.63867 1.12158)" fill="white"/>
<path fill-rule="evenodd" clip-rule="evenodd" d="M14.8965 6.9375C14.917 7.18897 15.0801 7.69971 15.5615 7.72852C16.1631 7.76416 16.3154 8.11475 16.3252 8.44727C16.334 8.77979 16.0098 9.12109 15.7852 9.13037C15.6914 9.13379 14.0547 9.13379 12.1123 9.13379L12.1055 9.8374C12.1016 10.2354 11.7764 10.5552 11.3779 10.5513C10.9795 10.5474 10.6602 10.2217 10.6641 9.82324L10.6699 9.1333C9.34473 9.13232 8.01562 9.13135 7.03223 9.13037C6.91211 9.13037 6.45703 8.90869 6.45703 8.45606C6.45703 7.95313 6.85352 7.75537 7.03223 7.74609L7.05273 7.74463C7.24805 7.73633 7.72949 7.71533 7.87695 7.12598V3.8999C7.87695 2.80762 8.94434 0.690918 11.3096 0.691895C13.957 0.692871 14.8857 2.91699 14.8857 3.8999C14.8857 4.28125 14.8926 6.0835 14.8965 6.9375Z" fill="white"/>
<rect x="2.19629" y="4.88477" width="2.85614" height="1.44204" rx="0.721022" transform="rotate(0.362264 2.19629 4.88477)" fill="white"/>
<rect x="2.64453" y="9.08643" width="2.85614" height="1.44204" rx="0.721022" transform="rotate(-44.737 2.64453 9.08643)" fill="white"/>
<rect width="2.85614" height="1.44204" rx="0.721022" transform="matrix(-0.712292 0.701883 0.701883 0.712292 19.0996 1.12012)" fill="white"/>
<rect width="2.85614" height="1.44204" rx="0.721022" transform="matrix(-0.99998 0.00632265 0.00632265 0.99998 20.542 4.8833)" fill="white"/>
<rect width="2.85614" height="1.44204" rx="0.721022" transform="matrix(-0.710345 -0.703854 -0.703854 0.710345 20.0938 9.08496)" fill="white"/>
</svg>
