<svg width="24" height="24" viewBox="0 0 40 40" fill="none" xmlns="http://www.w3.org/2000/svg">
<circle cx="20" cy="20" r="19.25" stroke="white" stroke-width="1.5"/>
<path d="M20.0344 22.573C18.5427 22.573 17.1121 21.9804 16.0573 20.9256C15.0025 19.8708 14.4099 18.4402 14.4099 16.9485C14.4099 15.4568 15.0025 14.0261 16.0573 12.9713C17.1121 11.9166 18.5427 11.324 20.0344 11.324C21.5261 11.324 22.9568 11.9166 24.0116 12.9713C25.0664 14.0261 25.6589 15.4568 25.6589 16.9485C25.6589 18.4402 25.0664 19.8708 24.0116 20.9256C22.9568 21.9804 21.5261 22.573 20.0344 22.573ZM20.0344 28.1663C24.6862 28.1663 29.5709 29.7764 32.4733 33.2268C32.339 33.4018 32.1543 33.6377 31.94 33.8986C31.486 34.4511 30.9192 35.0908 30.4233 35.5101C28.8599 36.8322 27.7202 37.2449 25.7003 37.9383C23.5602 38.673 22.3067 38.9179 20.0308 38.9347C17.75 38.9514 16.3422 38.7398 14.1482 37.9413C11.9422 37.1385 10.7126 36.5367 9.04568 34.9588C8.67617 34.6091 8.24022 34.1031 7.88857 33.6726C7.75032 33.5033 7.62728 33.3485 7.52924 33.2234C10.4346 29.7752 15.3819 28.1663 20.0344 28.1663Z" stroke="white"/>
</svg>
