<svg width="57" height="32" viewBox="0 0 57 32" fill="none" xmlns="http://www.w3.org/2000/svg">
<path d="M56.6373 0.529083H39.6247C42.1843 1.73554 45.6488 4.71091 45.6488 11.216C45.6488 18.1368 42.6327 20.6964 39.0215 22.5061C41.1489 22.302 43.1389 21.3638 44.6501 19.8526C46.1613 18.3414 47.0995 16.3514 47.3036 14.224H51.1352L53.29 8.80307H47.3444V6.0967H54.4067L56.6373 0.529083Z" fill="white"/>
<path d="M30.7046 0.49588L28.3396 6.24189L33.9014 6.32086C35.2546 6.4676 37.9773 7.69851 37.9773 11.432C37.9773 15.1655 35.6835 16.6002 34.5341 16.8529H24.2105L21.8516 22.4671H34.5312C37.2376 22.4671 44.5883 21.9721 44.7432 11.432C44.8655 3.06018 39.2281 0.495907 36.1309 0.49588H30.7046Z" fill="url(#paint0_linear_442_10463)"/>
<path d="M7.76154 5.27398L5.68262 12.6195L10.3486 23.3837L15.1071 10.6792L16.4991 13.569L18.2772 7.1789L15.1071 0.145996L10.3486 10.6792L7.76154 5.27398Z" fill="url(#paint1_linear_442_10463)"/>
<path d="M17.1396 14.2826L18.8888 7.76158L20.5487 10.7167L24.8548 0.515594H29.8904L20.5583 23.4238L17.1396 14.2826Z" fill="white"/>
<g clip-path="url(#clip0_442_10463)">
<path d="M5.79902 0.608612H0L4.98975 12.3423L7.30552 4.37046L5.79902 0.608612Z" fill="white"/>
</g>
<g clip-path="url(#clip1_442_10463)">
<path d="M7.76124 5.26518L5.68457 12.6319L10.3515 23.4082L15.1044 10.6806L16.5024 13.5831L18.2772 7.21088L15.0933 0.133301L10.3513 10.6795L7.76124 5.26518Z" fill="url(#paint2_linear_442_10463)"/>
</g>
<defs>
<linearGradient id="paint0_linear_442_10463" x1="30.0701" y1="1.66628" x2="37.0236" y2="22.8444" gradientUnits="userSpaceOnUse">
<stop stop-color="#018681"/>
<stop offset="1" stop-color="#06BFB9"/>
</linearGradient>
<linearGradient id="paint1_linear_442_10463" x1="7.93662" y1="5.99197" x2="13.8468" y2="17.0915" gradientUnits="userSpaceOnUse">
<stop stop-color="#018681"/>
<stop offset="1" stop-color="#06BFB8"/>
</linearGradient>
<linearGradient id="paint2_linear_442_10463" x1="5.36072" y1="11.7991" x2="18.2771" y2="11.7991" gradientUnits="userSpaceOnUse">
<stop stop-color="#DB9A27"/>
<stop offset="0.24" stop-color="#DB9A27"/>
<stop offset="0.46" stop-color="#DEDEDE"/>
<stop offset="0.48" stop-color="#D3C4B0"/>
<stop offset="0.51" stop-color="#C8AB84"/>
<stop offset="0.54" stop-color="#BF965E"/>
<stop offset="0.56" stop-color="#B7853E"/>
<stop offset="0.59" stop-color="#B17726"/>
<stop offset="0.62" stop-color="#AD6D15"/>
<stop offset="0.66" stop-color="#AB680B"/>
<stop offset="0.7" stop-color="#AA6608"/>
<stop offset="1" stop-color="#D0C888"/>
</linearGradient>
<clipPath id="clip0_442_10463">
<rect width="7.30552" height="11.7336" fill="white" transform="translate(0 0.608673)"/>
</clipPath>
<clipPath id="clip1_442_10463">
<rect width="12.9163" height="23.2494" fill="white" transform="translate(5.36133 0.174408)"/>
</clipPath>
</defs>
</svg>
